<svg xmlns="http://www.w3.org/2000/svg" viewBox="0 0 512 512">
  <defs>
    <radialGradient id="g" cx="38%" cy="30%" r="72%">
      <stop offset="0" stop-color="#d6f8ff"/>
      <stop offset=".44" stop-color="#1b3840"/>
      <stop offset="1" stop-color="#050608"/>
    </radialGradient>
    <linearGradient id="a" x1="0" x2="1" y1="0" y2="1">
      <stop offset="0" stop-color="#00f5d4"/>
      <stop offset=".55" stop-color="#9cffdf"/>
      <stop offset="1" stop-color="#fff0b8"/>
    </linearGradient>
  </defs>
  <rect width="512" height="512" fill="#050608"/>
  <circle cx="256" cy="256" r="224" fill="url(#g)"/>
  <circle cx="256" cy="256" r="126" fill="none" stroke="url(#a)" stroke-width="5" opacity=".62"/>
  <path d="M150 302V204h31l41 57 41-57h31v98h-32v-48l-31 41h-18l-31-41v48h-32zm175 0V204h78c26 0 43 15 43 38 0 16-8 29-22 35l29 25h-43l-24-22h-29v22h-32zm32-47h42c9 0 15-5 15-13s-6-13-15-13h-42v26z" fill="#f8fdff" opacity=".92"/>
</svg>
